<svg xmlns="http://www.w3.org/2000/svg" width="39.466" height="33.213" viewBox="0 0 39.466 33.213">
  <g id="multiple-users-silhouette" transform="translate(0 -6.348)">
    <path id="Path_208" data-name="Path 208" d="M23.816,12.049a7.171,7.171,0,0,1,3.337,5.328,5.786,5.786,0,1,0-3.337-5.328ZM20.024,23.9a5.788,5.788,0,1,0-5.789-5.788A5.788,5.788,0,0,0,20.024,23.9Zm2.455.395H17.568a7.42,7.42,0,0,0-7.411,7.412v6.006l.015.094.414.13a33.735,33.735,0,0,0,10.077,1.625,20.687,20.687,0,0,0,8.8-1.652l.387-.2h.041V31.706A7.418,7.418,0,0,0,22.48,24.294Zm9.576-5.975H27.182a7.133,7.133,0,0,1-2.2,4.969,8.806,8.806,0,0,1,6.29,8.427v1.851a19.944,19.944,0,0,0,7.768-1.632l.387-.2h.041V25.73A7.419,7.419,0,0,0,32.056,18.319ZM9.868,17.925a5.75,5.75,0,0,0,3.078-.893,7.163,7.163,0,0,1,2.693-4.569c.006-.108.016-.216.016-.325a5.788,5.788,0,1,0-5.787,5.787Zm5.2,5.363a7.138,7.138,0,0,1-2.2-4.941c-.181-.013-.36-.028-.544-.028H7.411A7.419,7.419,0,0,0,0,25.73v6.007l.015.093.414.131a34.748,34.748,0,0,0,8.346,1.569V31.715A8.808,8.808,0,0,1,15.066,23.288Z" transform="translate(0 0)" fill="#59ca88"/>
  </g>
</svg>
