<svg xmlns="http://www.w3.org/2000/svg" width="32" height="31.756" viewBox="0 0 32 31.756">
  <g id="qa" transform="translate(-2.609 -2.834)">
    <path id="Path_209" data-name="Path 209" d="M17.834,3.333H5.147A2.039,2.039,0,0,0,3.108,5.372V15.646a2.039,2.039,0,0,0,2.039,2.039h.837V21.9l5.8-4.216h6.05a2.039,2.039,0,0,0,2.039-2.039V5.372A2.038,2.038,0,0,0,17.834,3.333Z" transform="translate(-0.227 -0.227)" fill="#f9dd9d"/>
    <g id="Group_115" data-name="Group 115" transform="translate(2.881 3.106)">
      <path id="Path_210" data-name="Path 210" d="M4.2,16.735V5.511A1.088,1.088,0,0,1,5.286,4.422H18.922a2.021,2.021,0,0,1,.79.16,2.039,2.039,0,0,0-1.879-1.248H5.147A2.039,2.039,0,0,0,3.108,5.372V15.645a2.039,2.039,0,0,0,1.248,1.879A2.027,2.027,0,0,1,4.2,16.735Z" transform="translate(-3.108 -3.333)" fill="#ffeecf"/>
    </g>
    <path id="Path_211" data-name="Path 211" d="M5.757,21.945a.273.273,0,0,1-.272-.272V17.729H4.92a2.313,2.313,0,0,1-2.311-2.311V5.145A2.313,2.313,0,0,1,4.92,2.834H17.607a2.313,2.313,0,0,1,2.311,2.311V15.419a2.313,2.313,0,0,1-2.311,2.311H11.645L5.917,21.893A.274.274,0,0,1,5.757,21.945ZM4.92,3.378A1.769,1.769,0,0,0,3.153,5.144V15.418A1.768,1.768,0,0,0,4.92,17.185h.837a.272.272,0,0,1,.272.272v3.682l5.368-3.9a.272.272,0,0,1,.16-.052h6.05a1.769,1.769,0,0,0,1.767-1.767V5.145a1.768,1.768,0,0,0-1.767-1.767H4.92Z" fill="#63312d"/>
    <path id="Path_212" data-name="Path 212" d="M33.386,3.333H30.158A2.039,2.039,0,0,1,32.2,5.372V15.646a2.039,2.039,0,0,1-2.039,2.039h3.228a2.039,2.039,0,0,0,2.039-2.039V5.372A2.039,2.039,0,0,0,33.386,3.333Z" transform="translate(-12.552 -0.227)" fill="#efc36a"/>
    <path id="Path_213" data-name="Path 213" d="M33.158,17.729H29.93a.272.272,0,0,1,0-.544A1.769,1.769,0,0,0,31.7,15.419V5.145A1.768,1.768,0,0,0,29.93,3.378a.272.272,0,0,1,0-.544h3.228a2.313,2.313,0,0,1,2.311,2.311V15.419A2.313,2.313,0,0,1,33.158,17.729Zm-1.739-.544h1.739a1.769,1.769,0,0,0,1.767-1.767V5.145a1.768,1.768,0,0,0-1.767-1.767H31.419a2.308,2.308,0,0,1,.823,1.767V15.419A2.311,2.311,0,0,1,31.419,17.185Z" transform="translate(-12.324)" fill="#63312d"/>
    <path id="Path_214" data-name="Path 214" d="M26.229,26.559H38.916A2.039,2.039,0,0,1,40.954,28.6V38.872a2.039,2.039,0,0,1-2.039,2.039h-.837v4.216l-5.8-4.216h-6.05a2.039,2.039,0,0,1-2.039-2.039V28.6A2.039,2.039,0,0,1,26.229,26.559Z" transform="translate(-9.833 -10.809)" fill="#82d9ff"/>
    <path id="Path_215" data-name="Path 215" d="M25.279,39.961V28.737a1.088,1.088,0,0,1,1.089-1.089H40a2.022,2.022,0,0,1,.79.16,2.039,2.039,0,0,0-1.879-1.248H26.229A2.039,2.039,0,0,0,24.19,28.6V38.871a2.039,2.039,0,0,0,1.248,1.879A2.019,2.019,0,0,1,25.279,39.961Z" transform="translate(-9.833 -10.809)" fill="#caf4ff"/>
    <path id="Path_216" data-name="Path 216" d="M37.851,45.171a.269.269,0,0,1-.16-.052l-5.728-4.164H26a2.313,2.313,0,0,1-2.311-2.311V28.37A2.313,2.313,0,0,1,26,26.059H38.688A2.313,2.313,0,0,1,41,28.37V38.644a2.313,2.313,0,0,1-2.311,2.311h-.565V44.9a.273.273,0,0,1-.272.272ZM26,26.6a1.769,1.769,0,0,0-1.767,1.767V38.644A1.769,1.769,0,0,0,26,40.411h6.05a.269.269,0,0,1,.16.052l5.368,3.9V40.683a.272.272,0,0,1,.272-.272h.837a1.769,1.769,0,0,0,1.767-1.767V28.37A1.768,1.768,0,0,0,38.688,26.6Z" transform="translate(-9.605 -10.582)" fill="#63312d"/>
    <path id="Path_217" data-name="Path 217" d="M53.755,26.559H50.54A2.039,2.039,0,0,1,52.578,28.6V38.871A2.039,2.039,0,0,1,50.54,40.91H49.7v4.216h3.216V40.91h.837a2.039,2.039,0,0,0,2.039-2.039V28.6A2.039,2.039,0,0,0,53.755,26.559Z" transform="translate(-21.457 -10.809)" fill="#52b8d9"/>
    <path id="Path_218" data-name="Path 218" d="M52.69,45.171H49.475A.272.272,0,0,1,49.2,44.9V40.683a.272.272,0,0,1,.272-.272h.837a1.769,1.769,0,0,0,1.767-1.767V28.37A1.768,1.768,0,0,0,50.312,26.6a.272.272,0,1,1,0-.544h3.215a2.313,2.313,0,0,1,2.311,2.311V38.644a2.313,2.313,0,0,1-2.311,2.311h-.565V44.9A.272.272,0,0,1,52.69,45.171Zm-2.943-.544h2.671V40.683a.272.272,0,0,1,.272-.272h.837a1.769,1.769,0,0,0,1.767-1.767V28.37A1.768,1.768,0,0,0,53.527,26.6H51.8a2.308,2.308,0,0,1,.823,1.767V38.644a2.313,2.313,0,0,1-2.311,2.311h-.565Z" transform="translate(-21.229 -10.582)" fill="#63312d"/>
    <g id="Group_116" data-name="Group 116" transform="translate(19.196 19.452)">
      <path id="Path_219" data-name="Path 219" d="M38.082,39.347H35.368l-.436,1.284H33.079L35.71,33.36h2.051l2.631,7.271H38.517Zm-1.358-4.029-.891,2.662h1.792Z" transform="translate(-33.079 -33.36)" fill="#f8f3f3"/>
    </g>
    <g id="Group_117" data-name="Group 117" transform="translate(18.923 19.18)">
      <path id="Path_220" data-name="Path 220" d="M40.163,40.677H38.288a.273.273,0,0,1-.258-.185l-.372-1.1H35.334l-.373,1.1a.273.273,0,0,1-.258.185H32.849a.272.272,0,0,1-.256-.365l2.631-7.271a.272.272,0,0,1,.256-.18h2.051a.272.272,0,0,1,.256.18l2.631,7.271a.272.272,0,0,1-.255.365Zm-1.68-.544h1.292L37.341,33.4H35.672l-2.434,6.727h1.271l.373-1.1a.273.273,0,0,1,.258-.185h2.714a.273.273,0,0,1,.258.185ZM37.4,38.025H35.606a.272.272,0,0,1-.258-.358L36.238,35a.272.272,0,0,1,.258-.186h0a.273.273,0,0,1,.258.185l.9,2.662a.272.272,0,0,1-.259.359Zm-1.414-.544h1.034l-.52-1.536Z" transform="translate(-32.577 -32.861)" fill="#63312d"/>
    </g>
    <g id="Group_118" data-name="Group 118" transform="translate(7.644 6.215)">
      <path id="Path_221" data-name="Path 221" d="M17.563,15.386l1.275,1.528H16.809l-.648-.9a3.893,3.893,0,0,1-.765.078,3.462,3.462,0,0,1-3.538-3.529A3.454,3.454,0,0,1,15.4,9.044a3.432,3.432,0,0,1,3.519,3.519A3.473,3.473,0,0,1,17.563,15.386ZM15.4,14.563a1.8,1.8,0,0,0,1.813-2,1.826,1.826,0,1,0-3.636,0A1.8,1.8,0,0,0,15.4,14.563Z" transform="translate(-11.858 -9.044)" fill="#f8f3f3"/>
    </g>
    <g id="Group_119" data-name="Group 119" transform="translate(7.371 5.942)">
      <path id="Path_222" data-name="Path 222" d="M18.61,16.958H16.581a.272.272,0,0,1-.221-.113l-.548-.761a4.108,4.108,0,0,1-.645.052,3.722,3.722,0,0,1-3.811-3.8,3.718,3.718,0,0,1,3.811-3.791,3.708,3.708,0,0,1,3.791,3.791,3.736,3.736,0,0,1-1.24,2.859l1.1,1.317a.273.273,0,0,1-.209.447Zm-1.89-.544h1.308l-.9-1.081a.271.271,0,0,1-.062-.2.276.276,0,0,1,.106-.186,3.19,3.19,0,0,0,1.245-2.607,3.175,3.175,0,0,0-3.247-3.247A3.185,3.185,0,0,0,11.9,12.335a3.19,3.19,0,0,0,3.266,3.257,3.622,3.622,0,0,0,.712-.073.271.271,0,0,1,.274.108Zm-1.553-1.806a2.072,2.072,0,0,1-2.1-2.272,2.1,2.1,0,1,1,4.181,0A2.068,2.068,0,0,1,15.168,14.607Zm0-4a1.512,1.512,0,0,0-1.551,1.727,1.556,1.556,0,1,0,3.092,0A1.523,1.523,0,0,0,15.168,10.608Z" transform="translate(-11.357 -8.544)" fill="#63312d"/>
    </g>
  </g>
</svg>
