<svg xmlns="http://www.w3.org/2000/svg" width="33.911" height="25.437" viewBox="0 0 33.911 25.437">
  <g id="school-bus" transform="translate(0 -6.703)">
    <path id="Path_149" data-name="Path 149" d="M0,19.133Z" transform="translate(0 0.289)" fill="#5dddd3"/>
    <path id="Path_151" data-name="Path 151" d="M116.54,91.488a29.9,29.9,0,0,1,3.207-.655.987.987,0,0,1,.943-.706h7.929a.986.986,0,0,1,.948.724c1.186.156,2,.369,3.2.637a3.828,3.828,0,0,1,2.41,3.414v10.77l.383.369v4.023H113.747V105.95l.383-.279V94.9a3.846,3.846,0,0,1,2.41-3.414Z" transform="translate(-105.025 -83.424)" fill="#ffba1b"/>
    <path id="Path_152" data-name="Path 152" d="M145.369,284.117h3.391a.287.287,0,0,1,.286.286v.694a.287.287,0,0,1-.286.286h-3.391a.287.287,0,0,1-.286-.286V284.4A.286.286,0,0,1,145.369,284.117Zm-14.889-3.23h1.506a.282.282,0,0,1,.281.281v1.175a.282.282,0,0,1-.281.281H130.48a.282.282,0,0,1-.281-.281v-1.175A.282.282,0,0,1,130.48,280.887Zm-.777,3.23h3.391a.287.287,0,0,1,.286.286v.694a.287.287,0,0,1-.286.286H129.7a.287.287,0,0,1-.286-.286V284.4A.286.286,0,0,1,129.7,284.117Zm16.773-3.23h1.506a.282.282,0,0,1,.281.281v1.175a.282.282,0,0,1-.281.281h-1.506a.282.282,0,0,1-.281-.281v-1.175A.282.282,0,0,1,146.476,280.887Z" transform="translate(-119.494 -259.557)" fill="#f5a209"/>
    <path id="Path_153" data-name="Path 153" d="M73.5,162.853l-1.118-.721c-.244-.157-.51-.377-.51-.677v0c-.911-.2-1.152-.4-1.241-.854a.961.961,0,0,1-.887-.967.98.98,0,0,1,.97-.97,1,1,0,0,1,.97.97.937.937,0,0,1-.735.941c.078.253.3.369.923.544V157.9h-.337a.461.461,0,0,1-.46-.46v-3.651a.461.461,0,0,1,.46-.46h.337v-.846a.4.4,0,0,1,.51-.413l1.118.289v.277l-1.141-.3c-.184-.048-.23.072-.23.255v.733h.4a.461.461,0,0,1,.46.46v3.651a.461.461,0,0,1-.46.46h-.4v3.468a.678.678,0,0,0,.352.533l1.019.657v.294h0Z" transform="translate(-64.398 -140.606)" fill="#1a91a1"/>
    <g id="Group_99" data-name="Group 99" transform="translate(10.681 29.812)">
      <path id="Path_154" data-name="Path 154" d="M142.687,391.507v1.143c0,.145-.27,1.185-.5,1.185H141.7a.161.161,0,0,1-.158-.1h-.145a.161.161,0,0,1-.158.1h-.489a.161.161,0,0,1-.158-.1h-.145a.161.161,0,0,1-.158.1H139.8c-.23,0-.5-1.04-.5-1.185v-1.143h3.391Z" transform="translate(-139.296 -391.507)" fill="#666"/>
      <path id="Path_155" data-name="Path 155" d="M332.356,391.507v1.143c0,.145-.27,1.185-.5,1.185h-.489a.161.161,0,0,1-.158-.1h-.145a.162.162,0,0,1-.159.1h-.489a.161.161,0,0,1-.158-.1h-.145a.161.161,0,0,1-.158.1h-.489c-.23,0-.5-1.04-.5-1.185v-1.143h3.39Z" transform="translate(-314.423 -391.507)" fill="#666"/>
    </g>
    <path id="Path_156" data-name="Path 156" d="M98.2,350.087h21.417a1.467,1.467,0,0,1,1.527,1.389,1.262,1.262,0,0,1-.031.278H96.7a1.262,1.262,0,0,1-.031-.278A1.467,1.467,0,0,1,98.2,350.087Z" transform="translate(-89.26 -323.451)" fill="#ecf0f1"/>
    <path id="Path_157" data-name="Path 157" d="M121.139,371.832q.005.059.005.12a1.467,1.467,0,0,1-1.527,1.389H98.2a1.467,1.467,0,0,1-1.527-1.389c0-.04,0-.08.006-.12h24.459Z" transform="translate(-89.261 -343.529)" fill="#c3cccf"/>
    <path id="Path_158" data-name="Path 158" d="M214.577,299.333h5.863c.146,0,.265.087.265.194s-.119.194-.265.194h-5.863c-.146,0-.265-.087-.265-.194S214.431,299.333,214.577,299.333Zm0-2.482h5.863c.146,0,.265.087.265.194s-.119.194-.265.194h-5.863c-.146,0-.265-.087-.265-.194S214.431,296.851,214.577,296.851Zm0,.827h5.863c.146,0,.265.087.265.194s-.119.194-.265.194h-5.863c-.146,0-.265-.087-.265-.194S214.431,297.678,214.577,297.678Zm0,.827h5.863c.146,0,.265.087.265.194s-.119.194-.265.194h-5.863c-.146,0-.265-.087-.265-.194S214.431,298.506,214.577,298.506Z" transform="translate(-197.879 -274.297)" fill="#f5a209"/>
    <path id="Path_159" data-name="Path 159" d="M126.987,140.143h7.2v8.783h-9.518v-6.467a2.323,2.323,0,0,1,2.316-2.316Zm15.508,0h-7.2v8.783h9.518v-6.467a2.323,2.323,0,0,0-2.316-2.316Z" transform="translate(-115.112 -129.605)" fill="#076673"/>
    <path id="Path_160" data-name="Path 160" d="M143.957,282.853h3.391a.287.287,0,0,1,.286.286v.695a.287.287,0,0,1-.286.286h-3.391a.287.287,0,0,1-.286-.286v-.695A.287.287,0,0,1,143.957,282.853Zm-14.889-3.23h1.506a.282.282,0,0,1,.281.281v1.175a.282.282,0,0,1-.281.281h-1.506a.282.282,0,0,1-.281-.281V279.9A.282.282,0,0,1,129.068,279.623Zm-.777,3.23h3.391a.287.287,0,0,1,.286.286v.695a.287.287,0,0,1-.286.286h-3.391a.287.287,0,0,1-.286-.286v-.695A.287.287,0,0,1,128.291,282.853Zm16.773-3.23h1.506a.282.282,0,0,1,.281.281v1.175a.282.282,0,0,1-.281.281h-1.506a.282.282,0,0,1-.281-.281V279.9A.282.282,0,0,1,145.064,279.623Z" transform="translate(-118.19 -258.39)" fill="#fff"/>
    <path id="Path_161" data-name="Path 161" d="M205.894,96.008v1.521h-9.082V96a.631.631,0,0,1,.659-.5h7.76a.632.632,0,0,1,.663.516Z" transform="translate(-181.721 -88.379)" fill="#f5a209"/>
    <path id="Path_162" data-name="Path 162" d="M215.99,101.1a.323.323,0,0,1,.069-.222.315.315,0,0,1,.414,0,.323.323,0,0,1,.069.222v.037h-.177v-.049a.132.132,0,0,0-.025-.091.1.1,0,0,0-.138,0,.134.134,0,0,0-.025.091.209.209,0,0,0,.027.108.451.451,0,0,0,.068.088c.027.028.057.056.088.084a.838.838,0,0,1,.088.091.459.459,0,0,1,.068.112.373.373,0,0,1,.027.148.32.32,0,0,1-.071.222.32.32,0,0,1-.418,0,.319.319,0,0,1-.071-.222v-.073h.177v.085a.123.123,0,0,0,.027.09.111.111,0,0,0,.141,0,.123.123,0,0,0,.027-.09.213.213,0,0,0-.027-.108.45.45,0,0,0-.068-.088c-.027-.028-.056-.056-.088-.084a.8.8,0,0,1-.088-.091.464.464,0,0,1-.068-.112.372.372,0,0,1-.027-.148Zm1.2.462h0v.158a.319.319,0,0,1-.071.222.32.32,0,0,1-.418,0,.318.318,0,0,1-.071-.222v-.62a.319.319,0,0,1,.071-.222.32.32,0,0,1,.418,0,.319.319,0,0,1,.071.222v.116h-.177v-.128a.126.126,0,0,0-.026-.091.108.108,0,0,0-.141,0,.126.126,0,0,0-.026.091v.644a.124.124,0,0,0,.026.09.1.1,0,0,0,.071.026.1.1,0,0,0,.071-.026.124.124,0,0,0,.026-.09v-.17h.177Zm.3.445h-.187v-1.193h.187v.511h.213v-.511h.191v1.193h-.191V101.5H217.5Zm.712-.274h0a.126.126,0,0,0,.027.091.107.107,0,0,0,.141,0,.127.127,0,0,0,.026-.091v-.644a.126.126,0,0,0-.026-.091.108.108,0,0,0-.141,0,.127.127,0,0,0-.027.091Zm-.187-.632h0a.312.312,0,0,1,.073-.222.327.327,0,0,1,.423,0,.312.312,0,0,1,.073.222v.62a.312.312,0,0,1-.073.222.326.326,0,0,1-.423,0,.312.312,0,0,1-.073-.222Zm.862.632h0a.126.126,0,0,0,.027.091.107.107,0,0,0,.141,0,.126.126,0,0,0,.027-.091v-.644a.126.126,0,0,0-.027-.091.108.108,0,0,0-.141,0,.127.127,0,0,0-.027.091Zm-.187-.632h0a.311.311,0,0,1,.073-.222.326.326,0,0,1,.423,0,.311.311,0,0,1,.073.222v.62a.312.312,0,0,1-.073.222.326.326,0,0,1-.423,0,.312.312,0,0,1-.073-.222Zm.69-.286h.187v1.022h.308v.17h-.5Zm1.124,0h0a.24.24,0,0,1,.278.274v.043a.351.351,0,0,1-.029.152.185.185,0,0,1-.092.088.188.188,0,0,1,.108.095.372.372,0,0,1,.032.161v.1a.253.253,0,0,1-.285.283h-.295v-1.193h.283Zm-.1.656h0v.366h.107a.1.1,0,0,0,.073-.026.133.133,0,0,0,.025-.092v-.1a.172.172,0,0,0-.028-.114.122.122,0,0,0-.093-.031h-.083Zm0-.486h0v.315h.073a.119.119,0,0,0,.083-.027.132.132,0,0,0,.03-.1v-.067a.15.15,0,0,0-.023-.094.086.086,0,0,0-.072-.029h-.09Zm.683-.171h0v.92a.124.124,0,0,0,.026.09.111.111,0,0,0,.141,0,.124.124,0,0,0,.026-.09v-.92h.177v.908a.319.319,0,0,1-.071.222.32.32,0,0,1-.418,0,.319.319,0,0,1-.071-.222v-.908Zm.475.286h0a.324.324,0,0,1,.069-.222.315.315,0,0,1,.414,0,.324.324,0,0,1,.069.222v.037h-.177v-.049a.132.132,0,0,0-.025-.091.1.1,0,0,0-.138,0,.133.133,0,0,0-.025.091.211.211,0,0,0,.027.108.458.458,0,0,0,.068.088c.027.028.057.056.088.084a.818.818,0,0,1,.088.091.471.471,0,0,1,.068.112.373.373,0,0,1,.027.148.319.319,0,0,1-.071.222.32.32,0,0,1-.418,0,.319.319,0,0,1-.071-.222v-.073h.177v.085a.124.124,0,0,0,.026.09.1.1,0,0,0,.071.026.1.1,0,0,0,.071-.026.124.124,0,0,0,.027-.09.21.21,0,0,0-.027-.108.442.442,0,0,0-.068-.088c-.027-.028-.057-.056-.088-.083a.814.814,0,0,1-.087-.091.47.47,0,0,1-.068-.112.372.372,0,0,1-.027-.148h0Z" transform="translate(-199.424 -93.279)" fill="#fff"/>
    <path id="Path_163" data-name="Path 163" d="M393.261,162.853l1.118-.721c.243-.157.51-.377.51-.677v0c.911-.2,1.152-.4,1.241-.854a.961.961,0,0,0,.887-.967.98.98,0,0,0-.97-.97,1,1,0,0,0-.97.97.937.937,0,0,0,.736.941c-.078.253-.3.369-.923.544V157.9h.337a.461.461,0,0,0,.46-.46v-3.651a.461.461,0,0,0-.46-.46h-.337v-.846a.4.4,0,0,0-.51-.413l-1.118.289v.277l1.141-.3c.184-.048.23.072.23.255v.733h-.4a.461.461,0,0,0-.46.46v3.651a.461.461,0,0,0,.46.46h.4v3.468a.678.678,0,0,1-.352.533l-1.019.657v.294Z" transform="translate(-363.107 -140.606)" fill="#1a91a1"/>
    <path id="Path_164" data-name="Path 164" d="M124.674,146.735l6.03-6.588h3.488v.174l-7.88,8.61h-1.638v-2.2Zm9.518-4.83h0l-6.451,7.025H128.8l5.389-5.868V141.9Zm8.305-1.758h-1.82l-5.383,5.881v2.9h.99l7.608-8.312A2.3,2.3,0,0,0,142.5,140.147Zm-4.783,8.783h0l6.866-7.477a2.291,2.291,0,0,1,.231.906l-6.034,6.57h-1.063Z" transform="translate(-115.114 -129.609)" fill="#0e7886"/>
    <path id="Path_165" data-name="Path 165" d="M164.969,111.223a.583.583,0,1,0-.583-.583A.584.584,0,0,0,164.969,111.223Z" transform="translate(-151.781 -101.826)" fill="#ff5b61"/>
    <path id="Path_166" data-name="Path 166" d="M149.769,115.9a.389.389,0,1,0-.389-.389A.389.389,0,0,0,149.769,115.9Z" transform="translate(-137.926 -106.506)" fill="#20d0c2"/>
    <path id="Path_167" data-name="Path 167" d="M332.994,111.223a.583.583,0,1,0-.583-.583A.584.584,0,0,0,332.994,111.223Z" transform="translate(-306.923 -101.826)" fill="#ff5b61"/>
    <path id="Path_168" data-name="Path 168" d="M352.876,115.9a.389.389,0,1,0-.389-.389A.389.389,0,0,0,352.876,115.9Z" transform="translate(-325.459 -106.506)" fill="#20d0c2"/>
    <path id="Path_169" data-name="Path 169" d="M153.335,260.286h8.534l3.9-1.569H149.43Zm12.4-1.4h0l-.043,1-1.25.129-.641.363-1.67,4.8-.139-4.607,3.743-1.688Zm-16.259,0h0l3.743,1.688-.139,4.607-1.67-4.8-.641-.363-1.25-.129-.043-1Z" transform="translate(-137.972 -239.087)" fill="#f5a209"/>
  </g>
</svg>
