<svg xmlns="http://www.w3.org/2000/svg" width="28.102" height="32.082" viewBox="0 0 28.102 32.082">
  <g id="student" transform="translate(-0.5)">
    <path id="Path_187" data-name="Path 187" d="M93.675,401.391a8.514,8.514,0,0,1,3.118,6.931H78.461a8.514,8.514,0,0,1,3.118-6.931Zm0,0" transform="translate(-73.076 -376.24)" fill="#465059"/>
    <path id="Path_188" data-name="Path 188" d="M79.035,404.929a9.8,9.8,0,0,0-.574,3.393h1.291a8.514,8.514,0,0,1,3.118-6.931H81.579a8.168,8.168,0,0,0-2.209,2.755A8.258,8.258,0,0,0,79.035,404.929Zm0,0" transform="translate(-73.076 -376.24)" fill="#3c474d"/>
    <path id="Path_189" data-name="Path 189" d="M132.678,388.428c-3.177-1.318-4.459-4.931-4.459-4.931a7.462,7.462,0,0,1,2.021-1.2h8.055a7.459,7.459,0,0,1,2.021,1.2s-1.282,3.613-4.459,4.931Zm0,0" transform="translate(-119.716 -358.346)" fill="#efedee"/>
    <path id="Path_190" data-name="Path 190" d="M128.6,384.351a8.383,8.383,0,0,1,.909-.854,7.458,7.458,0,0,1,2.021-1.2h-1.291s-.092.032-.252.1a7.888,7.888,0,0,0-1.769,1.094A8.036,8.036,0,0,0,128.6,384.351Zm0,0" transform="translate(-119.715 -358.345)" fill="#d4d2d3"/>
    <path id="Path_191" data-name="Path 191" d="M202.561,411.744a3.21,3.21,0,0,1-3.178,0,25.3,25.3,0,0,1,.675-3.487l.914-1.082.914,1.082A25.32,25.32,0,0,1,202.561,411.744Zm0,0" transform="translate(-186.42 -381.662)" fill="#c0344a"/>
    <path id="Path_192" data-name="Path 192" d="M197.973,389.9a4.491,4.491,0,0,1-1,2.164h-1.829a4.492,4.492,0,0,1-1-2.164Zm0,0" transform="translate(-181.504 -365.467)" fill="#da5b65"/>
    <path id="Path_193" data-name="Path 193" d="M113.441,467.392v-2.5a.484.484,0,0,1,.968,0v2.5Zm0,0" transform="translate(-105.864 -435.31)" fill="#3c474d"/>
    <path id="Path_194" data-name="Path 194" d="M320.59,467.392v-2.5a.484.484,0,0,1,.968,0v2.5Zm0,0" transform="translate(-300.033 -435.31)" fill="#3c474d"/>
    <path id="Path_195" data-name="Path 195" d="M14.59,33.4a12.2,12.2,0,0,1,3.887-8.915,13.623,13.623,0,0,1,18.562,0A12.2,12.2,0,0,1,40.927,33.4Zm0,0" transform="translate(-13.207 -19.53)" fill="#c86d5c"/>
    <path id="Path_196" data-name="Path 196" d="M22.351,24.49A13.316,13.316,0,0,1,29.7,20.974a13.988,13.988,0,0,0-1.937-.134,13.415,13.415,0,0,0-9.281,3.65,12.2,12.2,0,0,0-3.887,8.915h3.873a12.2,12.2,0,0,1,3.887-8.915Zm0,0" transform="translate(-13.208 -19.534)" fill="#ad4f3d"/>
    <path id="Path_197" data-name="Path 197" d="M37.629,20.84H61.078v6.831H37.629Zm0,0" transform="translate(-34.802 -19.534)" fill="#465059"/>
    <path id="Path_198" data-name="Path 198" d="M375.011,187.59a2.473,2.473,0,1,1-2.473-2.473A2.473,2.473,0,0,1,375.011,187.59Zm0,0" transform="translate(-346.409 -173.518)" fill="#dfb297"/>
    <path id="Path_199" data-name="Path 199" d="M42.219,159.65a3.508,3.508,0,0,0-2.258,3.268v.023c0,6.062,5.184,10.976,11.578,10.976S63.118,169,63.118,162.941a10.449,10.449,0,0,0-.471-3.11,1.055,1.055,0,0,0-1.438-.644c-7.612,3.38-12.865-1.856-18.989.463Zm0,0" transform="translate(-36.988 -149.07)" fill="#fbc4ac"/>
    <path id="Path_200" data-name="Path 200" d="M4.909,168.726V168.7a7.92,7.92,0,0,1,1-3.5c-.227.066-.454.141-.683.228a3.488,3.488,0,0,0-1.558,1.175,1.354,1.354,0,0,0-.7-.155,2.473,2.473,0,1,0,0,4.945,1.923,1.923,0,0,0,.339-.028,11.481,11.481,0,0,0,11.239,8.33c.326,0,.649-.013.968-.039a11.229,11.229,0,0,1-10.61-10.937Zm0,0" transform="translate(0 -154.855)" fill="#dfb297"/>
    <path id="Path_201" data-name="Path 201" d="M314.024,204.249a.484.484,0,0,1-.484-.484v-1.176a.484.484,0,0,1,.968,0v1.176A.484.484,0,0,1,314.024,204.249Zm0,0" transform="translate(-293.424 -189.441)" fill="#3c474d"/>
    <path id="Path_202" data-name="Path 202" d="M302.844,249.429h-1.6a.484.484,0,1,1,0-.968h1.6a.484.484,0,1,1,0,.968Zm0,0" transform="translate(-281.444 -232.892)" fill="#f98084"/>
    <path id="Path_203" data-name="Path 203" d="M120.977,204.249a.484.484,0,0,1-.484-.484v-1.176a.484.484,0,0,1,.968,0v1.176A.484.484,0,0,1,120.977,204.249Zm0,0" transform="translate(-112.474 -189.441)" fill="#3c474d"/>
    <path id="Path_204" data-name="Path 204" d="M109.8,249.429h-1.6a.484.484,0,0,1,0-.968h1.6a.484.484,0,1,1,0,.968Zm0,0" transform="translate(-100.497 -232.892)" fill="#f98084"/>
    <path id="Path_205" data-name="Path 205" d="M201.317,241.206a1.915,1.915,0,0,1-1.446-.644.484.484,0,1,1,.729-.637.978.978,0,0,0,1.434,0,.484.484,0,1,1,.729.637A1.915,1.915,0,0,1,201.317,241.206Zm0,0" transform="translate(-186.766 -224.736)" fill="#3c474d"/>
    <path id="Path_206" data-name="Path 206" d="M37.629,20.84H61.078v3.526H37.629Zm0,0" transform="translate(-34.802 -19.534)" fill="#3c474d"/>
    <path id="Path_207" data-name="Path 207" d="M27.79,0H1.313A.813.813,0,0,0,.5.813v1.27a.813.813,0,0,0,.813.813H27.79a.813.813,0,0,0,.813-.813V.813A.812.812,0,0,0,27.79,0Zm0,0" transform="translate(0)" fill="#465059"/>
  </g>
</svg>
